<svg width="112" height="103" viewBox="0 0 112 103" fill="none" xmlns="http://www.w3.org/2000/svg">
<path fill-rule="evenodd" clip-rule="evenodd" d="M95.8687 41.1166C84.3475 -8.13824 15.5623 -7.75276 4.80221 41.1274C2.77633 50.3303 3.62652 63.5804 11.8854 72.5452C18.5855 78.8045 25.8288 79.5215 32.938 77.4918C40.2044 75.4173 47.2905 70.4643 53.1911 65.4321L53.2288 65.4L53.2681 65.3698C64.8465 56.478 68.6554 47.8768 68.1739 41.9097C67.9352 38.9524 66.6531 36.5579 64.6336 34.8871C62.601 33.2055 59.7057 32.1651 56.1166 32.1651C55.0454 32.1651 54.1771 31.3097 54.1771 30.2544C54.1771 29.1992 55.0454 28.3438 56.1166 28.3438C60.4671 28.3438 64.2893 29.6121 67.1282 31.9608C69.9802 34.3203 71.7236 37.6777 72.0407 41.6069C72.67 49.4042 67.7227 59.1015 55.6924 68.3532C49.6755 73.48 42.0884 78.8579 34.0178 81.1621C25.7906 83.511 17.0325 82.6549 9.16012 75.2654L9.11091 75.2193L9.06511 75.1698C-0.402258 64.9451 -1.16504 50.2039 1.01127 40.3175C12.6775 -12.6786 87.2955 -12.8732 99.6672 40.3379L99.6846 40.4125L99.6958 40.4882C100.773 47.7522 100.777 53.4964 99.4688 59.2205C98.2721 64.4556 96.0007 69.5674 92.6283 75.7132L111.034 86.2414C111.815 86.6879 112.18 87.6061 111.914 88.456C111.648 89.3059 110.822 89.8629 109.922 89.7995C109.922 89.7995 109.922 89.7995 109.922 89.7995L109.907 89.7984L109.855 89.7949C109.808 89.7917 109.738 89.7871 109.645 89.7812C109.46 89.7695 109.184 89.7528 108.83 89.7332C108.12 89.6939 107.094 89.6431 105.833 89.5974C103.309 89.506 99.8541 89.4354 96.1255 89.5175C92.3907 89.5998 88.4162 89.8347 84.8417 90.3462C81.2197 90.8644 78.2032 91.6415 76.2576 92.7063C64.3126 99.2436 56.2267 99.9525 52.0413 99.9525C50.9702 99.9525 50.1018 99.0971 50.1018 98.0418C50.1018 96.9866 50.9702 96.1312 52.0413 96.1312C55.6141 96.1312 63.0444 95.5663 74.3737 89.3659C76.9536 87.954 80.543 87.0999 84.2841 86.5646C88.0728 86.0224 92.2188 85.7813 96.0388 85.6972C98.282 85.6478 100.425 85.6522 102.333 85.6832L87.4003 77.1416L88.3222 75.5034C92.144 68.7125 94.5048 63.5416 95.6845 58.381C96.8532 53.2685 96.89 48.0412 95.8687 41.1166Z" fill="#1A80BC"/>
<path fill-rule="evenodd" clip-rule="evenodd" d="M33.0239 32.3501C35.8299 29.9255 39.7098 28.6218 44.2833 28.6218C45.3544 28.6218 46.2228 29.4772 46.2228 30.5324C46.2228 31.5876 45.3544 32.4431 44.2833 32.4431C40.4521 32.4431 37.5437 33.5276 35.5817 35.2229C33.6325 36.9071 32.4607 39.3266 32.3208 42.3229C32.0378 48.3868 36.0402 56.9348 46.7825 65.3384C47.6213 65.9946 47.7613 67.1965 47.0952 68.0228C46.429 68.8492 45.209 68.9871 44.3702 68.3309C33.1311 59.5387 28.0824 49.9356 28.4459 42.1474C28.6293 38.2176 30.2051 34.7857 33.0239 32.3501Z" fill="#1A80BC"/>
<path d="M56.9414 34.2547H56.8669C53.9055 34.2547 51.2865 35.86 49.78 38.2289C48.2734 35.86 45.6544 34.2547 42.693 34.2547H42.6186C40.3961 34.2764 38.2718 35.1957 36.7073 36.8129C35.1428 38.4301 34.2645 40.6145 34.2633 42.8913C34.2633 45.7187 35.472 49.7305 37.8291 53.0316C42.3198 59.3217 49.78 64.825 49.78 64.825C49.78 64.825 57.2401 59.3228 61.7298 53.0316C64.0879 49.7305 65.2957 45.7187 65.2957 42.8913C65.2945 40.6147 64.4163 38.4304 62.852 36.8133C61.2877 35.1961 59.1636 34.2767 56.9414 34.2547ZM55.8765 53.5155C55.5392 53.5142 55.2102 53.4085 54.9327 53.2121C54.6551 53.0158 54.442 52.7381 54.3213 52.4155H52.5508C52.4342 52.4148 52.3208 52.3767 52.2263 52.3067C52.1318 52.2368 52.0611 52.1383 52.0238 52.0251L51.48 50.3466L49.7591 56.5066C49.7256 56.6252 49.6554 56.7294 49.5592 56.8037C49.4629 56.8779 49.3457 56.9181 49.2252 56.9183H49.1905C49.0647 56.9121 48.9449 56.8619 48.8509 56.776C48.757 56.6902 48.6947 56.5739 48.6744 56.4466L46.9009 45.5194L45.6048 51.9854C45.5751 52.1083 45.506 52.2174 45.4087 52.2953C45.3114 52.3733 45.1914 52.4156 45.0679 52.4155H42.5739C42.4991 52.4187 42.4245 52.4065 42.3545 52.3794C42.2845 52.3523 42.2206 52.311 42.1665 52.258C42.1125 52.2049 42.0695 52.1412 42.0402 52.0707C42.0108 52.0002 41.9957 51.9243 41.9957 51.8477C41.9957 51.771 42.0108 51.6952 42.0402 51.6247C42.0695 51.5542 42.1125 51.4905 42.1665 51.4374C42.2206 51.3844 42.2845 51.3431 42.3545 51.316C42.4245 51.2889 42.4991 51.2766 42.5739 51.2799H44.6312L46.4672 42.5863C46.4974 42.4578 46.5701 42.344 46.6731 42.2643C46.7761 42.1847 46.9029 42.1442 47.0318 42.1497C47.1608 42.1552 47.2838 42.2064 47.3799 42.2946C47.4761 42.3828 47.5393 42.5024 47.5589 42.6331L49.3701 53.7799L50.9123 48.2685C50.9444 48.1524 51.0123 48.0501 51.1059 47.9768C51.1994 47.9035 51.3136 47.8632 51.4314 47.8618H51.4423C51.5589 47.8619 51.6726 47.8996 51.767 47.9697C51.8615 48.0398 51.9319 48.1387 51.9683 48.2522L52.9518 51.2829H54.2995C54.3953 50.9847 54.5697 50.7194 54.8034 50.5163C55.0371 50.3132 55.3211 50.1802 55.6239 50.1319C55.9268 50.0837 56.2367 50.1221 56.5196 50.243C56.8025 50.3638 57.0473 50.5624 57.2269 50.8167C57.4066 51.0711 57.5142 51.3714 57.5378 51.6844C57.5614 51.9974 57.5001 52.3111 57.3607 52.5907C57.2213 52.8703 57.0092 53.105 56.7479 53.2689C56.4865 53.4328 56.1859 53.5196 55.8795 53.5196L55.8765 53.5155Z" fill="#1A80BC"/>
<path d="M47.5158 29.8956C47.5158 32.0061 45.7791 33.7169 43.6367 33.7169C41.4944 33.7169 39.7577 32.0061 39.7577 29.8956C39.7577 27.7852 41.4944 26.0744 43.6367 26.0744C45.7791 26.0744 47.5158 27.7852 47.5158 29.8956Z" fill="#1A80BC"/>
<path d="M55.2738 97.405C55.2738 100.219 52.9582 102.5 50.1018 102.5C47.2453 102.5 44.9297 100.219 44.9297 97.405C44.9297 94.591 47.2453 92.3099 50.1018 92.3099C52.9582 92.3099 55.2738 94.591 55.2738 97.405Z" fill="#1A80BC"/>
<path d="M60.4459 29.8956C60.4459 32.0061 58.7092 33.7169 56.5669 33.7169C54.4245 33.7169 52.6878 32.0061 52.6878 29.8956C52.6878 27.7852 54.4245 26.0744 56.5669 26.0744C58.7092 26.0744 60.4459 27.7852 60.4459 29.8956Z" fill="#1A80BC"/>
</svg>
